<svg width="128" height="128" viewBox="0 0 128 128" fill="none" xmlns="http://www.w3.org/2000/svg">
  <path d="M64 112C64 112 96 78.8 96 51.8C96 34.1 81.7 20 64 20C46.3 20 32 34.1 32 51.8C32 78.8 64 112 64 112Z" stroke="#C98272" stroke-width="4" stroke-linejoin="round"/>
  <path d="M64 64.5C71.2 64.5 77 58.7 77 51.5C77 44.3 71.2 38.5 64 38.5C56.8 38.5 51 44.3 51 51.5C51 58.7 56.8 64.5 64 64.5Z" stroke="#C98272" stroke-width="4"/>
  <path d="M88 27L94 21M94 27L88 21" stroke="#D7A44A" stroke-width="3.2" stroke-linecap="round"/>
  <path d="M38 84C44 93 55 104 64 112" stroke="#D7A44A" stroke-width="3.2" stroke-linecap="round"/>
</svg>
