<svg width="128" height="128" viewBox="0 0 128 128" fill="none" xmlns="http://www.w3.org/2000/svg">
  <path d="M37 76C30 69 30.5 58 38 50.5L56 32.5C60.2 28.3 67 28.3 71.2 32.5C75.4 36.7 75.4 43.5 71.2 47.7L58 60.9" stroke="#C98272" stroke-width="4" stroke-linecap="round" stroke-linejoin="round"/>
  <path d="M52.5 84.5L80.5 56.5C84.4 52.6 90.8 52.6 94.7 56.5C98.6 60.4 98.6 66.8 94.7 70.7L70.5 94.9C61.7 103.7 47.4 103.7 38.6 94.9L29 85.3" stroke="#C98272" stroke-width="4" stroke-linecap="round" stroke-linejoin="round"/>
  <path d="M64 54L78.8 68.8" stroke="#C98272" stroke-width="4" stroke-linecap="round"/>
  <path d="M86 57C83 62 83.3 66.4 91 71" stroke="#D7A44A" stroke-width="3.2" stroke-linecap="round"/>
  <path d="M32 31L32 23M28 27H36" stroke="#D7A44A" stroke-width="3.2" stroke-linecap="round"/>
</svg>
