<svg width="128" height="128" viewBox="0 0 128 128" fill="none" xmlns="http://www.w3.org/2000/svg">
  <path d="M27.5 103.5L34.2 83.8C29.7 76.7 27.6 68.2 28.4 59.4C30.1 40.7 45.8 26 64.7 26C84.8 26 101 42.2 101 62.3C101 82.4 84.8 98.6 64.7 98.6C57.8 98.6 51.3 96.7 45.8 93.3L27.5 103.5Z" stroke="#C98272" stroke-width="4" stroke-linecap="round" stroke-linejoin="round"/>
  <path d="M50.5 47.5C48.4 49.1 45.8 53.2 48.2 60.1C51.2 68.7 59.4 77 68.1 80.2C75 82.7 79.3 80.2 81 78.1L82.8 75.7C83.8 74.4 83.5 72.5 82.1 71.7L74.8 67.6C73.6 66.9 72 67.2 71.1 68.3L68.7 71.2C64.2 69.5 58.6 64.1 56.8 59.5L59.7 57C60.8 56.1 61.1 54.5 60.4 53.3L56.2 46.1C55.4 44.7 53.6 44.4 52.3 45.3L50.5 47.5Z" stroke="#C98272" stroke-width="4" stroke-linejoin="round"/>
  <path d="M93 30L93 22M89 26H97" stroke="#D7A44A" stroke-width="3.2" stroke-linecap="round"/>
</svg>
